<?xml version="1.0" encoding="UTF-8"?>
<svg xmlns="http://www.w3.org/2000/svg" width="120" height="120">
<g stroke="#000">
<path stroke-width="5" d="M7,48v24m7,17l7,7m3,3l7,7m17,7h10m4 0h10m17-7l17-17m7-17v-10m0-4v-10m-7-17l-17-17m-17-7h-24m-17,7l-7 7m-3,3l-7,7m1,17v10m0,4v10m5 11l7,7m3,3l7,7m11,5h10m4 0h10m11-5l7-7m3-3l7-7m5-11v-24m-5-11l-17-17m-11-5h-24m-11 5l-17,17m3,11v24m3,5l17,17m5,3h10m4,0h10m5-3l7-7m3-3l7-7m3-5v-10m0-4v-10m-3-5l-7-7m-3-3l-7-7m-5-3h-24m-5,3l-17,17"/>
<circle cx="60" cy="60" r="28" stroke-width="2" fill="#FFF"/>
<path fill="#000" d="M60,88a14,14 0 0,1 0-28a14,14 0 0,0 0-28a28,28 0 0,0 0,56m0-10a4,4 0 0,0 0-8a4,4 0 0,0 0,8m0-28a4,4 0 0,1 0-8a4,4 0 0,1 0,8"/>
</g></svg>