<?xml version="1.0" standalone="no"?>
<!DOCTYPE svg PUBLIC "-//W3C//DTD SVG 20010904//EN"
 "http://www.w3.org/TR/2001/REC-SVG-20010904/DTD/svg10.dtd">
<svg version="1.0" xmlns="http://www.w3.org/2000/svg"
 width="700.000000pt" height="700.000000pt" viewBox="0 0 700.000000 700.000000"
 preserveAspectRatio="xMidYMid meet">
<metadata>
Created by potrace 1.11, written by Peter Selinger 2001-2013
</metadata>
<g transform="translate(0.000000,700.000000) scale(0.100000,-0.100000)"
fill="#000000" stroke="none">
<path d="M2800 6595 l0 -145 700 0 700 0 0 145 0 145 -700 0 -700 0 0 -145z"/>
<path d="M1495 6080 l-200 -200 105 -105 105 -105 205 205 205 205 -100 100
c-55 55 -104 100 -110 100 -6 0 -100 -90 -210 -200z"/>
<path d="M5185 6180 l-100 -100 498 -497 497 -498 100 100 c55 55 100 104 100
110 0 13 -972 985 -985 985 -6 0 -55 -45 -110 -100z"/>
<path d="M2800 6125 l0 -145 700 0 700 0 0 145 0 145 -700 0 -700 0 0 -145z"/>
<path d="M1557 5442 c-268 -268 -487 -492 -487 -497 0 -6 45 -55 100 -110
l100 -100 497 498 498 497 -100 100 c-55 55 -104 100 -110 100 -5 0 -229 -219
-498 -488z"/>
<path d="M4835 5830 l-100 -100 498 -497 497 -498 100 100 c55 55 100 104 100
110 0 13 -972 985 -985 985 -6 0 -55 -45 -110 -100z"/>
<path d="M2800 5655 l0 -145 700 0 700 0 0 145 0 145 -700 0 -700 0 0 -145z"/>
<path d="M917 5502 c-108 -108 -197 -202 -197 -207 0 -6 45 -55 100 -110 l100
-100 205 205 205 205 -102 102 c-57 57 -105 103 -108 103 -3 0 -94 -89 -203
-198z"/>
<path d="M1907 5092 c-268 -268 -487 -492 -487 -497 0 -6 45 -55 100 -110
l100 -100 497 498 498 497 -100 100 c-55 55 -104 100 -110 100 -5 0 -229 -219
-498 -488z"/>
<path d="M4485 5480 l-100 -100 205 -205 205 -205 105 105 105 105 -200 200
c-110 110 -204 200 -210 200 -6 0 -55 -45 -110 -100z"/>
<path d="M3307 5179 c-117 -13 -227 -39 -352 -80 -683 -231 -1145 -876 -1145
-1599 0 -188 29 -359 91 -545 231 -683 876 -1145 1599 -1145 188 0 359 29 545
91 683 231 1145 876 1145 1599 0 188 -29 359 -91 545 -233 689 -886 1152
-1614 1144 -60 -1 -141 -5 -178 -10z m851 -250 c455 -211 775 -613 884 -1110
19 -90 22 -133 22 -319 0 -186 -3 -229 -22 -319 -136 -621 -602 -1088 -1218
-1221 -126 -28 -402 -38 -527 -20 -219 31 -427 209 -525 450 -43 107 -56 180
-55 305 4 351 234 649 575 745 41 12 130 25 204 30 73 5 161 16 195 25 257 64
466 234 573 467 152 329 79 716 -183 967 -65 62 -55 62 77 0z m-583 -428 c43
-19 100 -78 116 -118 53 -139 -90 -299 -235 -262 -87 22 -156 107 -156 193 0
57 11 85 52 131 38 45 99 75 148 75 19 0 53 -9 75 -19z"/>
<path d="M3452 2939 c-114 -21 -212 -139 -211 -254 1 -96 54 -183 140 -230
168 -92 376 34 378 230 1 66 -33 139 -89 188 -66 61 -135 81 -218 66z"/>
<path d="M5072 4897 l-102 -102 205 -205 205 -205 100 100 c55 55 100 104 100
110 0 10 -390 405 -400 405 -3 0 -51 -46 -108 -103z"/>
<path d="M260 3500 l0 -700 145 0 145 0 0 700 0 700 -145 0 -145 0 0 -700z"/>
<path d="M730 3910 l0 -290 145 0 145 0 0 290 0 290 -145 0 -145 0 0 -290z"/>
<path d="M1200 3500 l0 -700 145 0 145 0 0 700 0 700 -145 0 -145 0 0 -700z"/>
<path d="M5510 3910 l0 -290 145 0 145 0 0 290 0 290 -145 0 -145 0 0 -290z"/>
<path d="M5980 3500 l0 -700 145 0 145 0 0 700 0 700 -145 0 -145 0 0 -700z"/>
<path d="M6450 3910 l0 -290 145 0 145 0 0 290 0 290 -145 0 -145 0 0 -290z"/>
<path d="M730 3090 l0 -290 145 0 145 0 0 290 0 290 -145 0 -145 0 0 -290z"/>
<path d="M5510 3090 l0 -290 145 0 145 0 0 290 0 290 -145 0 -145 0 0 -290z"/>
<path d="M6450 3090 l0 -290 145 0 145 0 0 290 0 290 -145 0 -145 0 0 -290z"/>
<path d="M1517 2512 c-53 -53 -97 -102 -97 -107 0 -13 972 -985 985 -985 6 0
55 45 110 100 l100 100 -495 495 c-272 272 -497 495 -500 495 -3 0 -49 -44
-103 -98z"/>
<path d="M5172 2407 l-202 -202 105 -105 105 -105 200 200 c110 110 200 204
200 210 0 10 -190 205 -200 205 -3 0 -96 -91 -208 -203z"/>
<path d="M1167 2162 c-53 -53 -97 -102 -97 -107 0 -6 90 -100 200 -210 l200
-200 105 105 105 105 -202 202 c-112 112 -205 203 -208 203 -3 0 -49 -44 -103
-98z"/>
<path d="M5522 2057 l-202 -202 105 -105 105 -105 200 200 c110 110 200 204
200 210 0 10 -190 205 -200 205 -3 0 -96 -91 -208 -203z"/>
<path d="M4590 1825 l-205 -205 100 -100 c55 -55 104 -100 110 -100 6 0 100
90 210 200 l200 200 -105 105 -105 105 -205 -205z"/>
<path d="M817 1812 c-53 -53 -97 -102 -97 -107 0 -6 90 -100 200 -210 l200
-200 105 105 105 105 -202 202 c-112 112 -205 203 -208 203 -3 0 -49 -44 -103
-98z"/>
<path d="M5580 1415 l-495 -495 100 -100 c55 -55 104 -100 110 -100 13 0 985
972 985 985 0 10 -191 205 -200 205 -3 0 -228 -223 -500 -495z"/>
<path d="M1750 1575 l-105 -105 200 -200 c110 -110 204 -200 210 -200 6 0 55
45 110 100 l100 100 -205 205 -205 205 -105 -105z"/>
<path d="M4940 1475 l-205 -205 100 -100 c55 -55 104 -100 110 -100 6 0 100
90 210 200 l200 200 -105 105 -105 105 -205 -205z"/>
<path d="M2800 1345 l0 -145 290 0 290 0 0 145 0 145 -290 0 -290 0 0 -145z"/>
<path d="M3620 1345 l0 -145 290 0 290 0 0 145 0 145 -290 0 -290 0 0 -145z"/>
<path d="M1400 1225 l-105 -105 200 -200 c110 -110 204 -200 210 -200 6 0 55
45 110 100 l100 100 -205 205 -205 205 -105 -105z"/>
<path d="M2800 875 l0 -145 290 0 290 0 0 145 0 145 -290 0 -290 0 0 -145z"/>
<path d="M3620 875 l0 -145 290 0 290 0 0 145 0 145 -290 0 -290 0 0 -145z"/>
<path d="M2800 405 l0 -145 290 0 290 0 0 145 0 145 -290 0 -290 0 0 -145z"/>
<path d="M3620 405 l0 -145 290 0 290 0 0 145 0 145 -290 0 -290 0 0 -145z"/>
</g>
</svg>
